# File created by Blade
# Date/Time:  Thu Sep 25 21:01:51 2014
# Frame Rate: 120.000 fps
#------------------------------------------------------
:FULLY-SPECIFIED
:DEGREES
934
root -0.026761 2.583978 -8.292051 -25.832912 2.099054 -0.133038
Spine 32.979035 10.576072 -1.191978
Head -12.999356 -12.462258 15.625454
LeftShoulder -1.319577 10.857598 21.631397
LeftArm 33.823694 14.408008 -54.308293
LeftForeArm -27.631901 -0.000000 101.760842
LeftHand -12.700376 0.000000 -24.127502
LeftHandThumb1 -26.253704 0.000000 33.147579
RightShoulder -13.136483 16.700387 -38.311139
RightArm -16.219883 -14.354221 86.368874
RightForeArm -48.240328 -0.000000 106.450355
RightHand -17.840965 -0.000000 37.080284
RightHandThumb1 -24.326973 -0.000000 -32.862282
LeftUpLeg -115.949674 -36.292525 -64.439286
LeftLeg 120.496644 -0.000000 -0.000000
LeftFoot 56.602070 -31.258084 -48.935231
LeftToeBase -11.340717 -0.000000 0.000000
RightUpLeg -65.703883 -9.362232 5.030908
RightLeg 7.375544 -0.000000 -0.000000
RightFoot 22.263185 -2.529924 10.060302
RightToeBase -3.005580 -0.000000 0.000000
935
root -0.027511 2.584590 -8.291491 -25.817357 2.091144 -0.135940
Spine 32.957930 10.546795 -1.237558
Head -13.012286 -12.417964 15.649158
LeftShoulder -1.316158 10.874271 21.617117
LeftArm 33.805800 14.380979 -54.262442
LeftForeArm -27.666612 -0.000000 101.795072
LeftHand -12.720146 -0.000000 -24.147254
LeftHandThumb1 -26.253704 0.000000 33.147579
RightShoulder -13.146024 16.702636 -38.323293
RightArm -16.207899 -14.343037 86.406032
RightForeArm -48.281037 -0.000000 106.484065
RightHand -17.868553 -0.000000 37.073108
RightHandThumb1 -24.326973 -0.000000 -32.862282
LeftUpLeg -115.952250 -36.318194 -64.469910
LeftLeg 120.458146 -0.000000 -0.000000
LeftFoot 56.621620 -31.306202 -48.923202
LeftToeBase -11.334248 -0.000000 0.000000
RightUpLeg -65.714523 -9.355732 5.050567
RightLeg 7.363291 -0.000000 -0.000000
RightFoot 22.294248 -2.453287 10.015378
RightToeBase -3.014237 -0.000000 0.000000
936
root -0.029146 2.584737 -8.290629 -25.793675 2.078302 -0.124548
Spine 32.920974 10.532887 -1.315247
Head -13.014801 -12.379419 15.695657
LeftShoulder -1.329625 10.931665 21.630954
LeftArm 33.825740 14.341151 -54.230988
LeftForeArm -27.672054 -0.000000 101.824687
LeftHand -12.735201 -0.000000 -24.152598
LeftHandThumb1 -26.253704 0.000000 33.147579
RightShoulder -13.145175 16.690340 -38.328522
RightArm -16.197973 -14.349661 86.442724
RightForeArm -48.219262 -0.000000 106.484586
RightHand -17.855502 -0.000000 36.901040
RightHandThumb1 -24.326973 -0.000000 -32.862282
LeftUpLeg -115.970205 -36.345634 -64.499827
LeftLeg 120.437047 -0.000000 -0.000000
LeftFoot 56.581957 -31.374536 -48.880690
LeftToeBase -11.283600 -0.000000 0.000000
RightUpLeg -65.735181 -9.330224 5.051250
RightLeg 7.358211 -0.000000 -0.000000
RightFoot 22.317165 -2.397780 10.035616
RightToeBase -3.039766 -0.000000 0.000000
937
root -0.032608 2.585726 -8.290465 -25.773504 2.057192 -0.127078
Spine 32.883059 10.538744 -1.367400
Head -12.987979 -12.382390 15.737752
LeftShoulder -1.291592 10.953200 21.664438
LeftArm 33.781455 14.324065 -54.232199
LeftForeArm -27.589169 -0.000000 101.882367
LeftHand -12.736975 0.000000 -24.085359
LeftHandThumb1 -26.253704 0.000000 33.147579
RightShoulder -13.141266 16.676763 -38.319361
RightArm -16.186629 -14.352384 86.466822
RightForeArm -48.222654 -0.000000 106.487861
RightHand -17.887783 0.000000 36.862395
RightHandThumb1 -24.326973 -0.000000 -32.862282
LeftUpLeg -115.995873 -36.364665 -64.506979
LeftLeg 120.432282 -0.000000 -0.000000
LeftFoot 56.560193 -31.420311 -48.870317
LeftToeBase -11.332394 -0.000000 0.000000
RightUpLeg -65.752720 -9.306304 5.080035
RightLeg 7.355153 -0.000000 -0.000000
RightFoot 22.351580 -2.316549 9.995182
RightToeBase -3.033582 -0.000000 0.000000
938
root -0.035018 2.585787 -8.289819 -25.746849 2.038472 -0.124964
Spine 32.838560 10.530519 -1.427603
Head -12.962377 -12.403167 15.747877
LeftShoulder -1.289318 10.997931 21.671448
LeftArm 33.767767 14.278387 -54.224105
LeftForeArm -27.591717 -0.000000 101.915093
LeftHand -12.748762 -0.000000 -24.140205
LeftHandThumb1 -26.253704 0.000000 33.147579
RightShoulder -13.141021 16.665264 -38.322065
RightArm -16.163608 -14.354442 86.505050
RightForeArm -48.239116 -0.000000 106.482079
RightHand -17.923167 -0.000000 36.871936
RightHandThumb1 -24.326973 -0.000000 -32.862282
LeftUpLeg -116.018569 -36.392573 -64.513963
LeftLeg 120.427111 -0.000000 -0.000000
LeftFoot 56.574011 -31.413320 -48.942189
LeftToeBase -11.429732 -0.000000 0.000000
RightUpLeg -65.778506 -9.284206 5.104052
RightLeg 7.347404 -0.000000 -0.000000
RightFoot 22.376554 -2.241745 9.993537
RightToeBase -3.099317 -0.000000 0.000000
939
root -0.038043 2.586053 -8.288645 -25.730826 2.002397 -0.128580
Spine 32.809155 10.538004 -1.462981
Head -12.941474 -12.411388 15.765579
LeftShoulder -1.275150 11.010388 21.685163
LeftArm 33.719343 14.262795 -54.243479
LeftForeArm -27.608917 -0.000000 101.948373
LeftHand -12.736415 -0.000000 -24.144034
LeftHandThumb1 -26.253704 0.000000 33.147579
RightShoulder -13.137471 16.666183 -38.331201
RightArm -16.167754 -14.339165 86.548743
RightForeArm -48.244273 -0.000000 106.483168
RightHand -17.924242 -0.000000 36.904176
RightHandThumb1 -24.326973 -0.000000 -32.862282
LeftUpLeg -116.049578 -36.408075 -64.507225
LeftLeg 120.435852 -0.000000 -0.000000
LeftFoot 56.522970 -31.460644 -48.939617
LeftToeBase -11.491016 -0.000000 0.000000
RightUpLeg -65.790005 -9.243055 5.131678
RightLeg 7.341734 -0.000000 -0.000000
RightFoot 22.397641 -2.164553 9.978521
RightToeBase -3.120863 -0.000000 0.000000
940
root -0.040199 2.586897 -8.288975 -25.709137 1.989464 -0.120426
Spine 32.777277 10.516870 -1.537999
Head -12.919333 -12.385002 15.795862
LeftShoulder -1.269588 11.030976 21.699206
LeftArm 33.645920 14.242134 -54.276773
LeftForeArm -27.571370 -0.000000 102.000242
LeftHand -12.736297 0.000000 -24.100211
LeftHandThumb1 -26.253704 0.000000 33.147579
RightShoulder -13.121144 16.692632 -38.316185
RightArm -16.181423 -14.327573 86.594600
RightForeArm -48.244052 -0.000000 106.485113
RightHand -17.966358 -0.000000 36.902286
RightHandThumb1 -24.326973 -0.000000 -32.862282
LeftUpLeg -116.062319 -36.420538 -64.523682
LeftLeg 120.442182 -0.000000 -0.000000
LeftFoot 56.528205 -31.501132 -48.966818
LeftToeBase -11.638425 -0.000000 0.000000
RightUpLeg -65.809963 -9.224140 5.144846
RightLeg 7.337490 -0.000000 -0.000000
RightFoot 22.410281 -2.080456 9.978432
RightToeBase -3.137295 -0.000000 0.000000
941
root -0.042996 2.587809 -8.289450 -25.693545 1.973940 -0.121486
Spine 32.761635 10.506580 -1.594773
Head -12.910430 -12.355622 15.848078
LeftShoulder -1.273367 11.060459 21.720265
LeftArm 33.611797 14.220967 -54.314663
LeftForeArm -27.598154 -0.000000 102.027658
LeftHand -12.745139 -0.000000 -24.099175
LeftHandThumb1 -26.253704 0.000000 33.147579
RightShoulder -13.116718 16.697646 -38.298328
RightArm -16.199529 -14.303369 86.647646
RightForeArm -48.274453 0.000000 106.500610
RightHand -17.998527 -0.000000 36.877980
RightHandThumb1 -24.326973 -0.000000 -32.862282
LeftUpLeg -116.062326 -36.430956 -64.552046
LeftLeg 120.460808 -0.000000 -0.000000
LeftFoot 56.475544 -31.557308 -48.939863
LeftToeBase -11.743958 -0.000000 0.000000
RightUpLeg -65.825626 -9.206873 5.171103
RightLeg 7.334985 -0.000000 -0.000000
RightFoot 22.429752 -2.006406 9.973624
RightToeBase -3.176623 -0.000000 0.000000
942
root -0.046340 2.588569 -8.289350 -25.669652 1.954265 -0.131880
Spine 32.735984 10.512057 -1.621692
Head -12.902990 -12.347059 15.871655
LeftShoulder -1.278353 11.080617 21.732030
LeftArm 33.584875 14.209044 -54.360403
LeftForeArm -27.598608 0.000000 102.043404
LeftHand -12.776305 -0.000000 -24.080482
LeftHandThumb1 -26.253704 0.000000 33.147579
RightShoulder -13.127412 16.676205 -38.297476
RightArm -16.242766 -14.247593 86.747610
RightForeArm -48.337110 -0.000000 106.523520
RightHand -18.076440 -0.000000 36.849959
RightHandThumb1 -24.326973 -0.000000 -32.862282
LeftUpLeg -116.067961 -36.452960 -64.574095
LeftLeg 120.491113 -0.000000 -0.000000
LeftFoot 56.455319 -31.622296 -48.921646
LeftToeBase -11.705146 -0.000000 0.000000
RightUpLeg -65.848488 -9.187813 5.208360
RightLeg 7.335466 -0.000000 -0.000000
RightFoot 22.431588 -1.929942 9.939456
RightToeBase -3.208026 -0.000000 0.000000
943
root -0.047414 2.589691 -8.289178 -25.641709 1.953501 -0.131028
Spine 32.713968 10.494143 -1.670390
Head -12.904446 -12.294585 15.889368
LeftShoulder -1.311978 11.135388 21.728536
LeftArm 33.591562 14.185956 -54.386155
LeftForeArm -27.541964 -0.000000 102.062356
LeftHand -12.791881 -0.000000 -24.096192
LeftHandThumb1 -26.253704 0.000000 33.147579
RightShoulder -13.055775 16.593155 -38.261915
RightArm -16.290590 -14.086543 86.842940
RightForeArm -48.371967 -0.000000 106.615522
RightHand -18.091143 -0.000000 36.886413
RightHandThumb1 -24.326973 -0.000000 -32.862282
LeftUpLeg -116.053734 -36.477629 -64.618603
LeftLeg 120.522526 -0.000000 -0.000000
LeftFoot 56.467690 -31.718604 -48.928870
LeftToeBase -11.572657 -0.000000 0.000000
RightUpLeg -65.874730 -9.179213 5.207299
RightLeg 7.334934 -0.000000 -0.000000
RightFoot 22.429963 -1.856276 9.884791
RightToeBase -3.206758 -0.000000 0.000000
944
root -0.048572 2.590658 -8.289138 -25.618721 1.952682 -0.132280
Spine 32.706473 10.494105 -1.706075
Head -12.915961 -12.221649 15.932752
LeftShoulder -1.333363 11.142685 21.739303
LeftArm 33.564492 14.185342 -54.430775
LeftForeArm -27.459624 -0.000000 102.093325
LeftHand -12.788345 -0.000000 -24.073060
LeftHandThumb1 -26.253704 0.000000 33.147579
RightShoulder -13.083544 16.550152 -38.252715
RightArm -16.338598 -14.010759 86.940692
RightForeArm -48.357933 0.000000 106.684320
RightHand -18.178333 -0.000000 37.005772
RightHandThumb1 -24.326973 -0.000000 -32.862282
LeftUpLeg -116.031494 -36.502853 -64.672249
LeftLeg 120.565530 -0.000000 -0.000000
LeftFoot 56.511177 -31.719859 -49.007152
LeftToeBase -11.348508 -0.000000 0.000000
RightUpLeg -65.901482 -9.181022 5.231456
RightLeg 7.343007 -0.000000 -0.000000
RightFoot 22.437559 -1.821260 9.900693
RightToeBase -3.198613 -0.000000 0.000000
